<svg width="209" height="179" viewBox="0 0 209 179" fill="none" xmlns="http://www.w3.org/2000/svg">
<path d="M153.957 55.1985C160.56 55.1985 165.913 50.332 165.913 44.3289C165.913 38.3259 160.56 33.4594 153.957 33.4594C147.353 33.4594 142 38.3259 142 44.3289C142 50.332 147.353 55.1985 153.957 55.1985Z" fill="#FFAA50"/>
<path d="M74.4903 34.9593C82.9604 13.0536 103.82 4.65447 120.673 -5.53499e-07L72.3769 79.1845C69.3966 76.9181 66.5965 55.3744 74.4903 34.9593Z" fill="#0A7DFF"/>
<path d="M129.49 41.4593C114.867 71.5518 96.057 76.9095 78.0747 82.2585L130.857 2.24253C133.168 9.53349 136.463 27.1107 129.49 41.4593Z" fill="#0A7DFF"/>
<path fill-rule="evenodd" clip-rule="evenodd" d="M76.8654 84.7074L50.7391 103.894L4 154.981L65.9565 129.981C71.1402 134.128 77.854 135.851 84.3942 134.714L86.6087 134.329L94.2174 178.894L130.087 123.459L130.087 123.459C132.115 123.054 134.132 122.604 136.138 122.11C147.614 118.999 154.031 113.357 161.811 98.6932L165.901 100.169C162.928 106.281 159.249 111.677 155.002 116.037C157.187 115.16 159.352 114.228 161.493 113.241L205 93.1982L180.551 82.7791C169.854 78.2205 161.527 69.4301 157.553 58.5026C153.853 48.3277 142.363 43.3532 132.412 47.618L130.869 48.2793C124.413 59.6141 117.438 67.2676 110.05 72.7157C101.225 79.2231 92.0003 82.4359 82.93 85.1339L75.0348 87.4824L76.8654 84.7074Z" fill="#0A7DFF"/>
<path d="M86.5047 126.244C107.037 124.622 122.595 109.546 121.254 92.5719C119.912 75.5976 102.18 63.1525 81.6474 64.775C61.1148 66.3975 45.5572 81.4731 46.8985 98.4474C48.2398 115.422 65.9721 127.867 86.5047 126.244Z" fill="white" stroke="#0A7DFF" stroke-width="4.34783" stroke-linecap="round" stroke-linejoin="round"/>
</svg>
