<svg width="226" height="265" viewBox="0 0 226 265" fill="none" xmlns="http://www.w3.org/2000/svg">
<path d="M153.957 55.1985C160.56 55.1985 165.913 50.332 165.913 44.3289C165.913 38.3259 160.56 33.4594 153.957 33.4594C147.353 33.4594 142 38.3259 142 44.3289C142 50.332 147.353 55.1985 153.957 55.1985Z" fill="#FFAA50"/>
<path d="M74.4903 34.9593C82.9604 13.0536 103.82 4.65448 120.673 7.0759e-06L72.3769 79.1845C69.3966 76.9181 66.5965 55.3744 74.4903 34.9593Z" fill="#0A7DFF"/>
<path d="M129.49 41.4593C114.867 71.5518 96.057 76.9095 78.0747 82.2585L130.857 2.24253C133.168 9.5335 136.463 27.1107 129.49 41.4593Z" fill="#0A7DFF"/>
<path fill-rule="evenodd" clip-rule="evenodd" d="M76.8654 84.7074L50.7391 103.894L4 154.981L65.9565 129.981C71.1402 134.128 77.854 135.851 84.3942 134.714L86.6087 134.329L94.2174 178.894L130.087 123.459L130.087 123.459C132.115 123.054 134.132 122.604 136.138 122.11C147.614 118.999 154.031 113.357 161.811 98.6932L165.901 100.169C162.928 106.281 159.249 111.677 155.002 116.037C157.187 115.16 159.352 114.228 161.493 113.241L205 93.1982L180.551 82.7791C169.854 78.2205 161.527 69.4301 157.553 58.5026C153.853 48.3277 142.363 43.3532 132.412 47.618L130.869 48.2793C124.413 59.6141 117.438 67.2676 110.05 72.7157C101.225 79.2231 92.0003 82.4359 82.93 85.1339L75.0348 87.4824L76.8654 84.7074Z" fill="#0A7DFF"/>
<path d="M86.5047 126.244C107.037 124.622 122.595 109.546 121.254 92.5719C119.912 75.5976 102.18 63.1525 81.6474 64.775C61.1148 66.3975 45.5572 81.4731 46.8985 98.4474C48.2398 115.422 65.9721 127.867 86.5047 126.244Z" fill="white" stroke="#0A7DFF" stroke-width="4.34783" stroke-linecap="round" stroke-linejoin="round"/>
<path d="M23.5798 206.825H23.6912C27.7917 206.825 31.3914 208.175 34.49 210.875C35.5291 211.905 36.146 212.587 36.3408 212.921C37.0273 213.821 37.5886 214.73 38.0247 215.648C39.0452 217.875 39.5554 220.199 39.5554 222.62C39.5554 226.619 38.2751 230.404 35.7146 233.976C35.2229 234.634 34.541 235.423 33.6689 236.341C32.3608 237.566 31.229 238.47 30.2734 239.055C26.9707 241.133 23.5381 242.172 19.9756 242.172H19.8643C15.7637 242.172 12.1641 240.822 9.06543 238.123C8.02637 237.093 7.40942 236.411 7.2146 236.077C6.52808 235.177 5.9668 234.268 5.53076 233.349C4.51025 231.123 4 228.799 4 226.377C4 222.379 5.28027 218.594 7.84082 215.022C8.33252 214.363 9.0144 213.575 9.88647 212.656C11.1946 211.432 12.3264 210.527 13.282 209.943C16.5847 207.865 20.0173 206.825 23.5798 206.825ZM22.7449 214.966H22.5779C20.9172 214.966 19.2288 215.458 17.5125 216.441C16.9744 216.738 16.2832 217.272 15.439 218.042C14.6318 218.877 14.0752 219.568 13.769 220.115C12.7114 221.85 12.1826 223.645 12.1826 225.501C12.1826 227.876 13.0361 229.94 14.7432 231.693C14.7803 231.712 14.9705 231.874 15.3137 232.18C16.3806 232.997 17.5217 233.54 18.7371 233.809C19.405 233.957 19.9988 234.031 20.5183 234.031H20.7549C20.7642 234.031 20.7688 234.036 20.7688 234.045L20.8105 234.031H20.9775C22.6382 234.031 24.3267 233.54 26.043 232.556C26.5811 232.259 27.2722 231.726 28.1165 230.956C28.9236 230.121 29.4802 229.43 29.7864 228.882C30.844 227.147 31.3728 225.352 31.3728 223.497C31.3728 221.122 30.5193 219.058 28.8123 217.304C28.7751 217.286 28.585 217.123 28.2417 216.817C27.1377 215.964 25.9409 215.407 24.6514 215.147C24.0298 215.027 23.4917 214.966 23.0371 214.966H22.8005C22.7913 214.966 22.7866 214.962 22.7866 214.952L22.7449 214.966ZM46.0403 207.104H56.6025C59.5156 207.104 62.1133 208.087 64.3955 210.054C65.2026 210.861 65.7593 211.506 66.0654 211.988C67.4014 214.001 68.0693 216.163 68.0693 218.473V218.765C68.0693 221.4 67.2344 223.97 65.5645 226.475C65.2212 227.022 64.6135 227.746 63.7415 228.646C60.8098 231.457 57.4143 232.862 53.5549 232.862H51.1057C50.5398 238.41 50.2383 241.319 50.2012 241.588C50.0898 241.792 49.9507 241.894 49.7837 241.894H42.4221C42.2273 241.894 42.1113 241.773 42.0742 241.532L44.0503 222.105C44.0688 222.04 44.5745 217.156 45.5671 207.452C45.6599 207.22 45.8176 207.104 46.0403 207.104ZM53.04 214.994C53.105 215.05 53.1375 215.101 53.1375 215.147C52.5066 221.437 52.1726 224.703 52.1355 224.944H53.5549C55.1692 224.944 56.584 224.267 57.7993 222.912C58.6528 221.827 59.0796 220.704 59.0796 219.545V219.35C59.0796 218.033 58.5229 216.896 57.4097 215.94C56.7695 215.514 56.3799 215.3 56.2407 215.3C55.8511 215.096 55.0996 214.994 53.9863 214.994H53.04ZM74.7769 207.104H96.124C96.3931 207.159 96.5276 207.289 96.5276 207.493C96.0823 212.012 95.8411 214.34 95.804 214.479C95.6926 214.693 95.5256 214.799 95.303 214.799H81.7766C81.7488 214.799 81.707 215.157 81.6514 215.871L81.1504 220.644H91.9631C92.2043 220.644 92.3667 220.728 92.4502 220.895C92.4595 220.96 92.4641 221.006 92.4641 221.034C92.0281 225.71 91.7915 228.047 91.7544 228.047C91.6338 228.251 91.4436 228.354 91.1838 228.354H80.3572C80.3572 228.4 80.1577 230.348 79.7588 234.198H93.2852C93.582 234.226 93.7305 234.356 93.7305 234.588C93.2852 239.162 93.0439 241.495 93.0068 241.588C92.8862 241.792 92.7239 241.894 92.5198 241.894H71.2144C70.9731 241.847 70.8525 241.727 70.8525 241.532C72.207 228.321 72.9399 221.196 73.0513 220.157C73.9048 211.817 74.3455 207.568 74.3733 207.41C74.4846 207.206 74.6191 207.104 74.7769 207.104ZM103.221 207.104H110.597C110.903 207.104 111.158 207.424 111.362 208.064C112.355 210.374 115.068 216.734 119.503 227.143H119.517C120.816 214.433 121.498 207.851 121.562 207.396C121.683 207.201 121.822 207.104 121.98 207.104H129.328C129.569 207.159 129.689 207.275 129.689 207.452C129.662 207.739 128.952 214.656 127.56 228.2C126.688 236.754 126.224 241.221 126.169 241.602C126.048 241.796 125.914 241.894 125.765 241.894H118.417C118.241 241.894 118.093 241.685 117.972 241.268C117.87 241.054 115.472 235.441 110.778 224.429C110.527 223.854 110.105 222.866 109.511 221.465H109.497C108.18 234.463 107.489 241.175 107.424 241.602C107.303 241.796 107.164 241.894 107.006 241.894H99.6587C99.4175 241.838 99.2969 241.722 99.2969 241.546C99.3247 241.258 100.03 234.398 101.412 220.964C102.293 212.318 102.762 207.795 102.818 207.396C102.938 207.201 103.073 207.104 103.221 207.104Z" fill="black"/>
<path d="M143.466 207.104H164.813C165.083 207.159 165.217 207.289 165.217 207.493C164.772 212.012 164.531 214.34 164.493 214.479C164.382 214.693 164.215 214.799 163.992 214.799H150.466C150.438 214.799 150.396 215.157 150.341 215.871L149.84 220.644H160.653C160.894 220.644 161.056 220.728 161.14 220.895C161.149 220.96 161.154 221.006 161.154 221.034C160.718 225.71 160.481 228.047 160.444 228.047C160.323 228.251 160.133 228.354 159.873 228.354H149.047C149.047 228.4 148.847 230.348 148.448 234.198H161.975C162.271 234.226 162.42 234.356 162.42 234.588C161.975 239.162 161.733 241.495 161.696 241.588C161.576 241.792 161.413 241.894 161.209 241.894H139.904C139.663 241.847 139.542 241.727 139.542 241.532C140.896 228.321 141.629 221.196 141.741 220.157C142.594 211.817 143.035 207.568 143.063 207.41C143.174 207.206 143.309 207.104 143.466 207.104ZM171.911 207.104H179.272C179.513 207.15 179.634 207.271 179.634 207.466C178.14 221.957 177.394 229.24 177.394 229.314C177.31 230 177.143 231.628 176.893 234.198H190.489C190.748 234.254 190.878 234.384 190.878 234.588C190.433 239.254 190.192 241.588 190.155 241.588C190.034 241.792 189.872 241.894 189.667 241.894H168.334C168.102 241.847 167.986 241.731 167.986 241.546L169.962 222.119C170.964 212.452 171.479 207.544 171.507 207.396C171.618 207.201 171.753 207.104 171.911 207.104ZM197.572 207.104H205.601C210.156 207.104 213.626 208.24 216.01 210.513C217.662 212.211 218.488 214.215 218.488 216.525C218.488 218.714 217.778 220.718 216.358 222.537C215.653 223.307 215.129 223.775 214.786 223.942C214.74 223.979 214.716 224.002 214.716 224.012C215.171 224.114 215.714 224.434 216.344 224.972C216.948 225.575 217.397 226.192 217.694 226.823C218.27 228.057 218.557 229.351 218.557 230.705C218.557 233.266 217.588 235.557 215.649 237.58C214.591 238.545 213.798 239.148 213.269 239.389C212.657 239.788 211.775 240.201 210.625 240.627C208.194 241.472 205.467 241.894 202.442 241.894H194.009C193.768 241.838 193.647 241.718 193.647 241.532C195.197 226.512 195.995 218.724 196.041 218.167C196.765 211.163 197.145 207.563 197.182 207.368C197.303 207.192 197.433 207.104 197.572 207.104ZM205.226 213.283H204.697L203.917 220.95H206.019C207.54 220.95 208.756 220.408 209.665 219.322C210.259 218.552 210.555 217.754 210.555 216.928V216.678C210.555 215.648 210.115 214.762 209.233 214.02C208.538 213.519 207.679 213.269 206.659 213.269C206.149 213.278 205.671 213.283 205.226 213.283ZM203.277 227.268C203.203 227.834 202.911 230.478 202.401 235.2H204.558C206.645 235.2 208.218 234.356 209.275 232.668C209.628 231.972 209.804 231.341 209.804 230.775V230.594C209.804 229.425 209.243 228.511 208.12 227.853C207.396 227.463 206.566 227.268 205.629 227.268H203.277Z" fill="#0A7DFF"/>
</svg>
