<svg width="460" height="179" viewBox="0 0 460 179" fill="none" xmlns="http://www.w3.org/2000/svg">
<path d="M153.957 55.1985C160.56 55.1985 165.913 50.332 165.913 44.3289C165.913 38.3259 160.56 33.4594 153.957 33.4594C147.353 33.4594 142 38.3259 142 44.3289C142 50.332 147.353 55.1985 153.957 55.1985Z" fill="#FFAA50"/>
<path d="M74.4903 34.9593C82.9604 13.0536 103.82 4.65448 120.673 7.0759e-06L72.3769 79.1845C69.3966 76.9181 66.5965 55.3744 74.4903 34.9593Z" fill="#0A7DFF"/>
<path d="M129.49 41.4593C114.867 71.5518 96.057 76.9095 78.0747 82.2585L130.857 2.24253C133.168 9.5335 136.463 27.1107 129.49 41.4593Z" fill="#0A7DFF"/>
<path fill-rule="evenodd" clip-rule="evenodd" d="M76.8654 84.7074L50.7391 103.894L4 154.981L65.9565 129.981C71.1402 134.128 77.854 135.851 84.3942 134.714L86.6087 134.329L94.2174 178.894L130.087 123.459L130.087 123.459C132.115 123.054 134.132 122.604 136.138 122.11C147.614 118.999 154.031 113.357 161.811 98.6932L165.901 100.169C162.928 106.281 159.249 111.677 155.002 116.037C157.187 115.16 159.352 114.228 161.493 113.241L205 93.1982L180.551 82.7791C169.854 78.2205 161.527 69.4301 157.553 58.5026C153.853 48.3277 142.363 43.3532 132.412 47.618L130.869 48.2793C124.413 59.6141 117.438 67.2676 110.05 72.7157C101.225 79.2231 92.0003 82.4359 82.93 85.1339L75.0348 87.4824L76.8654 84.7074Z" fill="#0A7DFF"/>
<path d="M86.5047 126.244C107.037 124.622 122.595 109.546 121.254 92.5719C119.912 75.5976 102.18 63.1525 81.6474 64.775C61.1148 66.3975 45.5572 81.4731 46.8985 98.4474C48.2398 115.422 65.9721 127.867 86.5047 126.244Z" fill="white" stroke="#0A7DFF" stroke-width="4.34783" stroke-linecap="round" stroke-linejoin="round"/>
<path d="M243.58 63.9316H243.691C247.792 63.9316 251.391 65.2815 254.49 67.9812C255.529 69.011 256.146 69.6929 256.341 70.0269C257.027 70.9268 257.589 71.8359 258.025 72.7544C259.045 74.981 259.555 77.3049 259.555 79.7263C259.555 83.7249 258.275 87.51 255.715 91.0818C255.223 91.7405 254.541 92.5291 253.669 93.4475C252.361 94.6721 251.229 95.5767 250.273 96.1611C246.971 98.2393 243.538 99.2783 239.976 99.2783H239.864C235.764 99.2783 232.164 97.9285 229.065 95.2288C228.026 94.199 227.409 93.5171 227.215 93.1831C226.528 92.2832 225.967 91.374 225.531 90.4556C224.51 88.229 224 85.905 224 83.4836C224 79.4851 225.28 75.7 227.841 72.1282C228.333 71.4695 229.014 70.6809 229.886 69.7625C231.195 68.5378 232.326 67.6333 233.282 67.0488C236.585 64.9707 240.017 63.9316 243.58 63.9316ZM242.745 72.0725H242.578C240.917 72.0725 239.229 72.5642 237.512 73.5476C236.974 73.8445 236.283 74.3779 235.439 75.1479C234.632 75.9829 234.075 76.6741 233.769 77.2214C232.711 78.9563 232.183 80.7515 232.183 82.6069C232.183 84.9819 233.036 87.0461 234.743 88.7996C234.78 88.8181 234.97 88.9805 235.314 89.2866C236.381 90.103 237.522 90.6458 238.737 90.9148C239.405 91.0632 239.999 91.1375 240.518 91.1375H240.755C240.764 91.1375 240.769 91.1421 240.769 91.1514L240.811 91.1375H240.978C242.638 91.1375 244.327 90.6458 246.043 89.6624C246.581 89.3655 247.272 88.832 248.116 88.062C248.924 87.2271 249.48 86.5359 249.786 85.9885C250.844 84.2537 251.373 82.4585 251.373 80.603C251.373 78.228 250.519 76.1638 248.812 74.4104C248.775 74.3918 248.585 74.2295 248.242 73.9233C247.138 73.0698 245.941 72.5132 244.651 72.2534C244.03 72.1328 243.492 72.0725 243.037 72.0725H242.801C242.791 72.0725 242.787 72.0679 242.787 72.0586L242.745 72.0725ZM266.04 64.21H276.603C279.516 64.21 282.113 65.1934 284.396 67.1602C285.203 67.9673 285.759 68.6121 286.065 69.0945C287.401 71.1077 288.069 73.2693 288.069 75.5793V75.8716C288.069 78.5063 287.234 81.0762 285.564 83.5811C285.221 84.1284 284.614 84.8521 283.741 85.752C280.81 88.563 277.414 89.9685 273.555 89.9685H271.106C270.54 95.5164 270.238 98.4248 270.201 98.6938C270.09 98.8979 269.951 99 269.784 99H262.422C262.227 99 262.111 98.8794 262.074 98.6382L264.05 79.2114C264.069 79.1465 264.574 74.262 265.567 64.5579C265.66 64.3259 265.818 64.21 266.04 64.21ZM273.04 72.1003C273.105 72.156 273.137 72.207 273.137 72.2534C272.507 78.5435 272.173 81.8091 272.135 82.0503H273.555C275.169 82.0503 276.584 81.373 277.799 80.0186C278.653 78.9331 279.08 77.8105 279.08 76.6509V76.4561C279.08 75.1387 278.523 74.0022 277.41 73.0466C276.77 72.6199 276.38 72.4065 276.241 72.4065C275.851 72.2024 275.1 72.1003 273.986 72.1003H273.04ZM294.777 64.21H316.124C316.393 64.2656 316.528 64.3955 316.528 64.5996C316.082 69.1177 315.841 71.4463 315.804 71.5854C315.693 71.7988 315.526 71.9055 315.303 71.9055H301.777C301.749 71.9055 301.707 72.2627 301.651 72.9771L301.15 77.7502H311.963C312.204 77.7502 312.367 77.8337 312.45 78.0007C312.459 78.0657 312.464 78.1121 312.464 78.1399C312.028 82.8157 311.792 85.1536 311.754 85.1536C311.634 85.3577 311.444 85.4597 311.184 85.4597H300.357C300.357 85.5061 300.158 87.4543 299.759 91.3044H313.285C313.582 91.3323 313.73 91.4622 313.73 91.6941C313.285 96.2678 313.044 98.6011 313.007 98.6938C312.886 98.8979 312.724 99 312.52 99H291.214C290.973 98.9536 290.853 98.833 290.853 98.6382C292.207 85.4272 292.94 78.3022 293.051 77.2632C293.905 68.9229 294.345 64.6738 294.373 64.5161C294.485 64.312 294.619 64.21 294.777 64.21ZM323.221 64.21H330.597C330.903 64.21 331.158 64.53 331.362 65.1702C332.355 67.4802 335.068 73.8398 339.503 84.249H339.517C340.816 71.5391 341.498 64.9568 341.562 64.5022C341.683 64.3074 341.822 64.21 341.98 64.21H349.328C349.569 64.2656 349.689 64.3816 349.689 64.5579C349.662 64.8455 348.952 71.7617 347.56 85.3066C346.688 93.8604 346.224 98.3274 346.169 98.7078C346.048 98.9026 345.914 99 345.765 99H338.417C338.241 99 338.093 98.7913 337.972 98.3738C337.87 98.1604 335.472 92.5476 330.778 81.5354C330.527 80.9602 330.105 79.9722 329.511 78.5713H329.497C328.18 91.5688 327.489 98.281 327.424 98.7078C327.303 98.9026 327.164 99 327.006 99H319.659C319.417 98.9443 319.297 98.8284 319.297 98.6521C319.325 98.3645 320.03 91.5039 321.412 78.0703C322.293 69.4238 322.762 64.9011 322.818 64.5022C322.938 64.3074 323.073 64.21 323.221 64.21Z" fill="black"/>
<path d="M363.466 64.21H384.813C385.083 64.2656 385.217 64.3955 385.217 64.5996C384.772 69.1177 384.531 71.4463 384.493 71.5854C384.382 71.7988 384.215 71.9055 383.992 71.9055H370.466C370.438 71.9055 370.396 72.2627 370.341 72.9771L369.84 77.7502H380.653C380.894 77.7502 381.056 77.8337 381.14 78.0007C381.149 78.0657 381.154 78.1121 381.154 78.1399C380.718 82.8157 380.481 85.1536 380.444 85.1536C380.323 85.3577 380.133 85.4597 379.873 85.4597H369.047C369.047 85.5061 368.847 87.4543 368.448 91.3044H381.975C382.271 91.3323 382.42 91.4622 382.42 91.6941C381.975 96.2678 381.733 98.6011 381.696 98.6938C381.576 98.8979 381.413 99 381.209 99H359.904C359.663 98.9536 359.542 98.833 359.542 98.6382C360.896 85.4272 361.629 78.3022 361.741 77.2632C362.594 68.9229 363.035 64.6738 363.063 64.5161C363.174 64.312 363.309 64.21 363.466 64.21ZM391.911 64.21H399.272C399.513 64.2563 399.634 64.377 399.634 64.5718C398.14 79.063 397.394 86.3457 397.394 86.4199C397.31 87.1064 397.143 88.7346 396.893 91.3044H410.489C410.748 91.3601 410.878 91.49 410.878 91.6941C410.433 96.3606 410.192 98.6938 410.155 98.6938C410.034 98.8979 409.872 99 409.667 99H388.334C388.102 98.9536 387.986 98.8376 387.986 98.6521L389.962 79.2253C390.964 69.5583 391.479 64.6506 391.507 64.5022C391.618 64.3074 391.753 64.21 391.911 64.21ZM417.572 64.21H425.601C430.156 64.21 433.626 65.3464 436.01 67.6194C437.662 69.3171 438.488 71.321 438.488 73.6311C438.488 75.8206 437.778 77.8245 436.358 79.6428C435.653 80.4128 435.129 80.8813 434.786 81.0483C434.74 81.0854 434.716 81.1086 434.716 81.1179C435.171 81.22 435.714 81.54 436.344 82.0781C436.948 82.6812 437.397 83.2981 437.694 83.929C438.27 85.1628 438.557 86.457 438.557 87.8115C438.557 90.3721 437.588 92.6636 435.649 94.686C434.591 95.6509 433.798 96.2539 433.269 96.4951C432.657 96.894 431.775 97.3069 430.625 97.7336C428.194 98.5779 425.467 99 422.442 99H414.009C413.768 98.9443 413.647 98.8237 413.647 98.6382C415.197 83.6182 415.995 75.8298 416.041 75.2732C416.765 68.2688 417.145 64.6692 417.182 64.4744C417.303 64.2981 417.433 64.21 417.572 64.21ZM425.226 70.3887H424.697L423.917 78.0564H426.019C427.54 78.0564 428.756 77.5137 429.665 76.4282C430.259 75.6582 430.555 74.8604 430.555 74.0347V73.7842C430.555 72.7544 430.115 71.8684 429.233 71.1262C428.538 70.6252 427.679 70.3748 426.659 70.3748C426.149 70.384 425.671 70.3887 425.226 70.3887ZM423.277 84.3743C423.203 84.9402 422.911 87.5842 422.401 92.3064H424.558C426.645 92.3064 428.218 91.4622 429.275 89.7737C429.628 89.0779 429.804 88.447 429.804 87.8811V87.7002C429.804 86.5312 429.243 85.6174 428.12 84.9587C427.396 84.5691 426.566 84.3743 425.629 84.3743H423.277Z" fill="#0A7DFF"/>
</svg>
